<svg width="246" height="248" viewBox="0 0 246 248" fill="none" xmlns="http://www.w3.org/2000/svg">
<ellipse cx="50" cy="129" rx="20" ry="24" fill="#854CAE"/>
<rect x="57" y="48" width="158" height="200" rx="79" fill="#A081D9"/>
<ellipse cx="91.5" cy="41.5" rx="19.5" ry="20.5" fill="#240754"/>
<ellipse cx="116.5" cy="28.5" rx="19.5" ry="20.5" fill="#240754"/>
<ellipse cx="144.5" cy="20.5" rx="19.5" ry="20.5" fill="#240754"/>
<ellipse cx="175.5" cy="28.5" rx="19.5" ry="20.5" fill="#240754"/>
<ellipse cx="202.5" cy="49.5" rx="19.5" ry="20.5" fill="#240754"/>
<ellipse cx="188.5" cy="54.5" rx="19.5" ry="20.5" fill="#240754"/>
<ellipse cx="159.5" cy="40.5" rx="19.5" ry="20.5" fill="#240754"/>
<ellipse cx="125.5" cy="41.5" rx="19.5" ry="20.5" fill="#240754"/>
<ellipse cx="105.5" cy="54.5" rx="19.5" ry="20.5" fill="#240754"/>
<circle cx="211.5" cy="70.5" r="22.5" fill="#240754"/>
<ellipse cx="77.5" cy="61.5" rx="19.5" ry="20.5" fill="#240754"/>
<rect x="69" y="98" width="48" height="36" rx="18" fill="white"/>
<rect x="121" y="98" width="48" height="36" rx="18" fill="white"/>
<path d="M144 115.5C144 108.596 149.596 103 156.5 103C163.404 103 169 108.596 169 115.5V116.5C169 123.404 163.404 129 156.5 129C149.596 129 144 123.404 144 116.5V115.5Z" fill="#240754"/>
<path d="M91 115.5C91 108.596 96.5964 103 103.5 103C110.404 103 116 108.596 116 115.5V116.5C116 123.404 110.404 129 103.5 129C96.5964 129 91 123.404 91 116.5V115.5Z" fill="#240754"/>
<path d="M138 164L57 150.144V177.856L138 164Z" fill="#854CAE"/>
<path d="M0 151.5C0 145.701 4.70101 141 10.5 141H124V162H10.5C4.70101 162 0 157.299 0 151.5Z" fill="#A081D9"/>
<path d="M203 128.5C203 116.626 212.626 107 224.5 107C236.374 107 246 116.626 246 128.5V131.5C246 143.374 236.374 153 224.5 153C212.626 153 203 143.374 203 131.5V128.5Z" fill="#A081D9"/>
<path d="M211.823 126.895V126.895C218.158 116.371 233.549 116.772 239.327 127.612L239.516 127.967" stroke="#240754" stroke-width="2"/>
<path d="M174.447 136.174C174.447 136.174 180.472 153.431 176.9 164.206C172.651 177.025 166.597 186.318 151.075 191.979C140.973 195.663 133.646 196.238 123.035 194.432C111.71 192.504 98.4018 182.008 98.4018 182.008" stroke="#240754" stroke-width="2"/>
</svg>
