<svg width="208" height="347" viewBox="0 0 208 347" fill="none" xmlns="http://www.w3.org/2000/svg">
<mask id="path-1-inside-1_0_1" fill="white">
<path d="M102.099 269L112.673 275.105L87.6847 318.387C85.9988 321.307 82.2648 322.308 79.3447 320.622C76.4246 318.936 75.4241 315.202 77.11 312.282L102.099 269Z"/>
</mask>
<path d="M102.099 269L112.673 275.105L87.6847 318.387C85.9988 321.307 82.2648 322.308 79.3447 320.622C76.4246 318.936 75.4241 315.202 77.11 312.282L102.099 269Z" fill="#F9E63F"/>
<path d="M101.367 266.268L115.405 274.373L109.941 275.837L102.831 271.732L101.367 266.268ZM84.6321 323.674L74.0574 317.569L84.6321 323.674ZM79.3447 320.622C75.468 318.383 74.1398 313.426 76.378 309.55L101.367 266.268L102.831 271.732L78.8421 313.282C77.1561 316.202 77.3812 319.488 79.3447 320.622L79.3447 320.622ZM115.405 274.373L90.4167 317.655C88.1785 321.532 83.2214 322.86 79.3447 320.622L79.3447 320.622C81.3082 321.755 84.2667 320.307 85.9526 317.387L109.941 275.837L115.405 274.373Z" fill="black" mask="url(#path-1-inside-1_0_1)"/>
<mask id="path-3-inside-2_0_1" fill="white">
<path d="M76 315.105L86.5747 309L101.784 335.343C103.47 338.263 102.469 341.997 99.5491 343.683C96.629 345.369 92.8951 344.368 91.2091 341.448L76 315.105Z"/>
</mask>
<path d="M76 315.105L86.5747 309L101.784 335.343C103.47 338.263 102.469 341.997 99.5491 343.683C96.629 345.369 92.8951 344.368 91.2091 341.448L76 315.105Z" fill="#F9E63F"/>
<path d="M76 315.105L86.5747 309L76 315.105ZM103.516 334.343C105.754 338.22 104.426 343.177 100.549 345.415L100.549 345.415C96.6724 347.653 91.7153 346.325 89.4771 342.448L92.9412 340.448C94.0748 342.412 96.5856 343.085 98.5491 341.951C100.513 340.817 101.185 338.307 100.052 336.343L103.516 334.343ZM100.549 345.415C96.6724 347.653 91.7153 346.325 89.4771 342.448L74.2679 316.105L77.7321 314.105L92.9412 340.448C94.0748 342.412 96.5856 343.085 98.5491 341.951L100.549 345.415ZM88.3067 308L103.516 334.343C105.754 338.22 104.426 343.177 100.549 345.415L98.5491 341.951C100.513 340.817 101.185 338.307 100.052 336.343L84.8426 310L88.3067 308Z" fill="black" mask="url(#path-3-inside-2_0_1)"/>
<path d="M98 287C98 270.984 110.984 258 127 258H148C164.016 258 177 270.984 177 287V346H98V287Z" fill="#F9E63F" stroke="black" stroke-width="2"/>
<path d="M123 237H153V270C153 278.284 146.284 285 138 285C129.716 285 123 278.284 123 270V237Z" fill="#7DFCFC" stroke="black" stroke-width="2"/>
<path d="M44.9371 119.637C31.6233 93.6879 18.326 103.82 7.1335 76.8555C-3.92673 50.209 0.462719 22.5166 20.6277 8.57653C38.9574 -4.09478 58.962 2.10118 79.0644 16.8868C99.4797 31.9027 94.4871 56.9538 111.677 76.6329C138.843 107.732 175.995 95.6824 194.996 133.195C217.375 177.376 204.555 230.942 168.174 251.846C130.37 273.568 71.8461 247.588 53.0376 199.643C40.2543 167.057 60.9017 150.752 44.9371 119.637Z" fill="#8FF7FE" stroke="black" stroke-width="2"/>
<path d="M84.8515 134.63C70.1949 131.37 68 143.818 68 143.818" stroke="black" stroke-width="2"/>
<circle cx="90" cy="161" r="19" fill="white" stroke="black" stroke-width="2"/>
<circle cx="162" cy="161" r="19" fill="white" stroke="black" stroke-width="2"/>
<circle cx="162" cy="133" r="20" fill="#8FF7FE"/>
<path d="M146 144.838C146 144.838 150.667 156.46 164.667 151.968C174.058 148.954 186 140 186 140" stroke="black" stroke-width="2"/>
<path d="M180.815 136.507C171.683 124.589 162 132.713 162 132.713" stroke="black" stroke-width="2"/>
<circle cx="161.5" cy="167.5" r="7.5" fill="black"/>
<circle cx="94.5" cy="167.5" r="7.5" fill="black"/>
<ellipse cx="132" cy="211.5" rx="30" ry="13.5" fill="black"/>
<ellipse cx="133" cy="216.5" rx="15" ry="7.5" fill="#E22B2B"/>
<ellipse cx="133" cy="225" rx="22" ry="9" fill="#8FF7FE"/>
<path d="M148 230.027C148 230.027 142.196 226.546 139 227C133.4 227.795 128 230.027 128 230.027" stroke="black" stroke-width="2"/>
<rect x="88" y="297" width="8" height="20" transform="rotate(30 88 297)" fill="#F9E63F"/>
</svg>
