<svg width="156" height="181" viewBox="0 0 156 181" fill="none" xmlns="http://www.w3.org/2000/svg">
<path d="M1 163C1 135.938 22.938 114 50 114H106C133.062 114 155 135.938 155 163V180H1V163Z" fill="#1E4322" stroke="black" stroke-width="2"/>
<path d="M43 99H103V107C103 123.016 90.0163 136 74 136H72C55.9837 136 43 123.016 43 107V99Z" fill="#EAEE22" stroke="black" stroke-width="2"/>
<circle cx="73" cy="62" r="49" fill="#EAEE22" stroke="black" stroke-width="2"/>
<path d="M47.1396 22.9948C49.3609 26.2879 50.4552 29.833 50.4716 32.8721C50.4881 35.9195 49.4329 38.335 47.507 39.634C45.5811 40.933 42.9462 41.0066 40.1268 39.8497C37.3152 38.696 34.4382 36.3534 32.2169 33.0602C29.9957 29.7671 28.9014 26.222 28.8849 23.1829C28.8685 20.1354 29.9237 17.72 31.8496 16.421C33.7755 15.1219 36.4103 15.0484 39.2297 16.2053C42.0413 17.359 44.9184 19.7016 47.1396 22.9948Z" fill="white" stroke="black" stroke-width="2"/>
<path d="M109.14 33.0602C106.918 36.3534 104.041 38.696 101.23 39.8497C98.4103 41.0066 95.7755 40.933 93.8496 39.634C91.9237 38.335 90.8685 35.9195 90.8849 32.8721C90.9014 29.833 91.9957 26.2879 94.2169 22.9948C96.4382 19.7016 99.3152 17.359 102.127 16.2053C104.946 15.0484 107.581 15.1219 109.507 16.421C111.433 17.72 112.488 20.1354 112.472 23.1829C112.455 26.222 111.361 29.7671 109.14 33.0602Z" fill="white" stroke="black" stroke-width="2"/>
<circle cx="40" cy="28" r="5" fill="black"/>
<circle cx="102" cy="28" r="5" fill="black"/>
<path d="M40 1.03813C18 0.0381328 18 19.0381 18 19.0381" stroke="black" stroke-width="2"/>
<path d="M126.411 19.4207C119.826 -1.59457 101.972 4.90381 101.972 4.90381" stroke="black" stroke-width="2"/>
<circle cx="73" cy="62" r="14" fill="#F85959" stroke="black" stroke-width="2"/>
<path d="M29 181V147" stroke="black" stroke-width="2"/>
<path d="M123 181V147" stroke="black" stroke-width="2"/>
</svg>
