<svg width="179" height="282" viewBox="0 0 179 282" fill="none" xmlns="http://www.w3.org/2000/svg">
<path d="M3.84141 49.8205C10.8053 64.6146 17.2426 83 17.2426 83H160.188C160.188 83 166.216 64.9695 174.483 49.8205C209.358 -14.0855 -27.3539 -16.4508 3.84141 49.8205Z" fill="#7DFCFC" stroke="black" stroke-width="2"/>
<path d="M47 212C47 207.029 51.0294 203 56 203H117C121.971 203 126 207.029 126 212V281H47V212Z" fill="#F8B96E" stroke="black" stroke-width="2"/>
<path d="M71 180H101V213C101 221.284 94.2843 228 86 228C77.7157 228 71 221.284 71 213V180Z" fill="#7DFCFC" stroke="black" stroke-width="2"/>
<mask id="path-4-inside-1_0_1" fill="white">
<path d="M11 88C11 82.4772 15.4772 78 21 78H157C162.523 78 167 82.4772 167 88V192C167 197.523 162.523 202 157 202H21C15.4772 202 11 197.523 11 192V88Z"/>
</mask>
<path d="M11 88C11 82.4772 15.4772 78 21 78H157C162.523 78 167 82.4772 167 88V192C167 197.523 162.523 202 157 202H21C15.4772 202 11 197.523 11 192V88Z" fill="#7DFCFC"/>
<path d="M11 78H167H11ZM169 192C169 198.627 163.627 204 157 204H21C14.3726 204 9 198.627 9 192H13C13 196.418 16.5817 200 21 200H157C161.418 200 165 196.418 165 192H169ZM21 204C14.3726 204 9 198.627 9 192V90C9 83.3726 14.3726 78 21 78C16.5817 78 13 82.4772 13 88V192C13 196.418 16.5817 200 21 200V204ZM157 78C163.627 78 169 83.3726 169 90V192C169 198.627 163.627 204 157 204V200C161.418 200 165 196.418 165 192V88C165 82.4772 161.418 78 157 78Z" fill="black" mask="url(#path-4-inside-1_0_1)"/>
<circle cx="50" cy="88" r="19" fill="white" stroke="black" stroke-width="2"/>
<circle cx="130" cy="88" r="19" fill="white" stroke="black" stroke-width="2"/>
<circle cx="53.5" cy="90.5" r="7.5" fill="black"/>
<circle cx="127.5" cy="90.5" r="7.5" fill="black"/>
<path d="M42.8515 56.6297C28.1949 53.3698 26 65.8177 26 65.8177" stroke="black" stroke-width="2"/>
<path d="M147.87 67.0031C140.946 53.6801 130 60 130 60" stroke="black" stroke-width="2"/>
<path d="M46 140C46 140 73.5241 156.611 91 156C107.466 155.424 132 140 132 140" stroke="black" stroke-width="2"/>
<path d="M128 136L137 146" stroke="black" stroke-width="2"/>
<path d="M50 136L41 146" stroke="black" stroke-width="2"/>
<path d="M110.091 151.324L106.921 144.527C104.937 140.272 106.778 135.215 111.033 133.231C115.287 131.247 120.344 133.087 122.328 137.342L125.498 144.139L110.091 151.324Z" fill="#F9ADA8" stroke="black" stroke-width="2"/>
<path d="M80 165C80 165 85.005 170.454 89 170C96 169.205 96 165 96 165" stroke="black" stroke-width="2"/>
<path d="M110 282V237" stroke="black" stroke-width="2"/>
</svg>
