<svg width="233" height="300" viewBox="0 0 233 300" fill="none" xmlns="http://www.w3.org/2000/svg">
<path d="M36 262C36 223.892 66.8924 193 105 193H129C167.108 193 198 223.892 198 262V299H36V262Z" fill="#F8955D" stroke="black" stroke-width="2"/>
<path d="M84 155H155V177.5C155 197.106 139.106 213 119.5 213C99.8939 213 84 197.106 84 177.5V155Z" fill="#F5B0DA" stroke="black" stroke-width="2"/>
<path d="M42.9493 29.4285C27.3072 44.4672 65.0807 67.6282 54.1185 87.1717C42.9562 107.072 8.02553 77.8681 1.62414 100.243C-5.6126 125.538 52.4355 108.059 54.1185 134.551C55.6896 159.282 2.26758 156.717 13.0545 178.376C23.3049 198.958 48.508 160.148 66.6893 172.041C88.1883 186.106 58.6606 237.629 83.3952 240.889C106.246 243.901 96.7388 184.602 119.445 188.762C138.241 192.205 127.695 232.621 146.702 234.004C169.722 235.679 146.107 182.439 167.221 172.041C188.015 161.801 205.192 213.413 221.439 195.646C238.271 177.239 186.219 158.532 195.94 134.551C202.862 117.474 231.334 127.228 231.99 108.492C232.74 87.0521 191.824 107.855 186.721 87.1717C181.829 67.3421 222.793 60.3541 212.646 43.1981C202.788 26.5308 181.51 61.1033 167.221 49.2685C153.529 37.9291 174.966 5.83095 158.446 1.88951C142.752 -1.85454 147.243 34.5139 131.145 36.2393C113.466 38.1342 114.275 -5.72765 97.9943 1.88951C82.5897 9.09704 105.264 37.7143 92.1442 49.2685C76.0981 63.3998 58.437 14.5382 42.9493 29.4285Z" fill="#F5B0DA" stroke="black" stroke-width="2"/>
<circle cx="91" cy="89" r="19" fill="white" stroke="black" stroke-width="2"/>
<circle cx="156" cy="89" r="19" fill="white" stroke="black" stroke-width="2"/>
<circle cx="98.5" cy="89.5" r="7.5" fill="black"/>
<path d="M72.0259 88C72.5459 77.9714 80.842 70 91 70C101.158 70 109.454 77.9714 109.974 88H72.0259Z" fill="#FFD4A0" stroke="black" stroke-width="2"/>
<circle cx="163.5" cy="89.5" r="7.5" fill="black"/>
<path d="M137.026 88C137.546 77.9714 145.842 70 156 70C166.158 70 174.454 77.9714 174.974 88H137.026Z" fill="#FFD4A0" stroke="black" stroke-width="2"/>
<path d="M87.8515 59.6297C73.1949 56.3698 71 68.8177 71 68.8177" stroke="black" stroke-width="2"/>
<path d="M155.851 59.6297C141.195 56.3698 139 68.8177 139 68.8177" stroke="black" stroke-width="2"/>
<path d="M109.124 140.867C137.133 146.235 149.316 141.492 163.124 126.867" stroke="black" stroke-width="2"/>
<path d="M159 120.283C159 120.283 166.829 112.125 169.931 116.084C172.337 119.155 169.931 127 169.931 127" stroke="black" stroke-width="2"/>
<path d="M79 300V266" stroke="black" stroke-width="2"/>
<path d="M159 300V266" stroke="black" stroke-width="2"/>
</svg>
