<svg width="167" height="238" viewBox="0 0 167 238" fill="none" xmlns="http://www.w3.org/2000/svg">
<rect x="69" y="98" width="25" height="83" fill="#5820B5" stroke="black" stroke-width="2"/>
<rect x="1" y="163" width="165" height="74" fill="#F5A03B" stroke="black" stroke-width="2"/>
<path d="M3.28636 92.2638L125.449 2.66417L161.438 149.826L3.28636 92.2638Z" fill="#5820B5" stroke="black" stroke-width="2"/>
<circle cx="71" cy="47" r="19" fill="white" stroke="black" stroke-width="2"/>
<circle cx="133" cy="47" r="19" fill="white" stroke="black" stroke-width="2"/>
<circle cx="73.5" cy="45.5" r="7.5" fill="black"/>
<mask id="path-7-inside-1_0_1" fill="white">
<path d="M54 57.3205C48.4772 47.7547 51.7547 35.5228 61.3205 30C70.8864 24.4772 83.1182 27.7547 88.641 37.3205L54 57.3205Z"/>
</mask>
<path d="M54 57.3205C48.4772 47.7547 51.7547 35.5228 61.3205 30C70.8864 24.4772 83.1182 27.7547 88.641 37.3205L54 57.3205Z" fill="#F5A03B"/>
<path d="M52.2679 58.3205C46.1928 47.7981 49.7981 34.3431 60.3205 28.2679C70.8429 22.1928 84.2979 25.7981 90.3731 36.3205L86.909 38.3205C81.9384 29.7112 70.9298 26.7615 62.3205 31.7321C53.7112 36.7026 50.7615 47.7112 55.7321 56.3205L52.2679 58.3205ZM91.3731 38.0526L53.2679 60.0526L54 57.3205C53.6661 56.7421 53.3613 56.1474 53.0869 55.5385L70.3205 45.5885L87.5555 35.6378L87.5543 35.6387C87.9444 36.1808 88.3071 36.7421 88.641 37.3205L91.3731 38.0526ZM53.2679 60.0526L52.2679 58.3205C46.1928 47.7981 49.7981 34.3431 60.3205 28.2679L62.3205 31.7321C53.7112 36.7026 50.7615 47.7112 55.7321 56.3205L54.7321 54.5885L53.2679 60.0526ZM60.3205 28.2679C70.8429 22.1928 84.2979 25.7981 90.3731 36.3205L91.3731 38.0526L85.909 36.5885L86.909 38.3205C81.9384 29.7112 70.9298 26.7615 62.3205 31.7321L60.3205 28.2679Z" fill="black" mask="url(#path-7-inside-1_0_1)"/>
<circle cx="130.5" cy="45.5" r="7.5" fill="black"/>
<mask id="path-10-inside-2_0_1" fill="white">
<path d="M116 36.3205C121.523 26.7547 133.755 23.4772 143.321 29C152.886 34.5228 156.164 46.7547 150.641 56.3205L116 36.3205Z"/>
</mask>
<path d="M116 36.3205C121.523 26.7547 133.755 23.4772 143.321 29C152.886 34.5228 156.164 46.7547 150.641 56.3205L116 36.3205Z" fill="#F5A03B"/>
<path d="M114.268 35.3205C120.343 24.7981 133.798 21.1928 144.321 27.2679C154.843 33.3431 158.448 46.7981 152.373 57.3205L148.909 55.3205C153.88 46.7112 150.93 35.7026 142.321 30.7321C133.711 25.7615 122.703 28.7112 117.732 37.3205L114.268 35.3205ZM151.373 59.0526L113.268 37.0526L116 36.3205C116.334 35.7421 116.697 35.1808 117.087 34.6387L134.321 44.5885L151.555 54.5391L151.554 54.5385C151.28 55.1474 150.975 55.7421 150.641 56.3205L151.373 59.0526ZM113.268 37.0526L114.268 35.3205C120.343 24.7981 133.798 21.1928 144.321 27.2679L142.321 30.7321C133.711 25.7615 122.703 28.7112 117.732 37.3205L118.732 35.5885L113.268 37.0526ZM144.321 27.2679C154.843 33.3431 158.448 46.7981 152.373 57.3205L151.373 59.0526L149.909 53.5885L148.909 55.3205C153.88 46.7112 150.93 35.7026 142.321 30.7321L144.321 27.2679Z" fill="black" mask="url(#path-10-inside-2_0_1)"/>
<path d="M51 73.9641C87 74.9065 87 57 87 57" stroke="black" stroke-width="2"/>
<path d="M146.122 81.1355C108.651 66.2386 115.544 50 115.544 50" stroke="black" stroke-width="2"/>
<path d="M65.8515 22.6297C51.1949 19.3698 49 31.8177 49 31.8177" stroke="black" stroke-width="2"/>
<path d="M154.391 32.4322C149.886 18.1093 138.008 22.4324 138.008 22.4324" stroke="black" stroke-width="2"/>
<path d="M81.0838 22L87.8633 35.3805" stroke="black" stroke-width="2"/>
<path d="M115.5 36.7942L121.392 23" stroke="black" stroke-width="2"/>
<path d="M145.157 52.2014L157.035 58.5202" stroke="black" stroke-width="2"/>
<path d="M45 60.8033L56.6527 54.0791" stroke="black" stroke-width="2"/>
<path d="M115.5 92C115.5 94.8043 113.69 97.4175 110.608 99.3549C107.533 101.288 103.253 102.5 98.5 102.5C93.7468 102.5 89.4671 101.288 86.3917 99.3549C83.3096 97.4175 81.5 94.8043 81.5 92C81.5 89.1957 83.3096 86.5825 86.3917 84.6451C89.4671 82.712 93.7468 81.5 98.5 81.5C103.253 81.5 107.533 82.712 110.608 84.6451C113.69 86.5825 115.5 89.1957 115.5 92Z" fill="black" stroke="black"/>
<ellipse cx="99" cy="97" rx="10" ry="5" fill="#E22B2B"/>
<ellipse cx="96.5" cy="106" rx="15.5" ry="9" fill="#5820B5"/>
<path d="M76.1674 94C76.1674 94 74.2327 100.885 76.6738 103.692C80.9511 108.611 84.4369 106.26 84.4369 106.26" stroke="black" stroke-width="2"/>
<mask id="mask0_0_1" style="mask-type:alpha" maskUnits="userSpaceOnUse" x="53" y="163" width="64" height="72">
<path d="M114.648 164.75L85 232.505L55.3522 164.75H114.648Z" fill="#E22B2B" stroke="black" stroke-width="2"/>
</mask>
<g mask="url(#mask0_0_1)">
<rect x="115.376" y="213.97" width="64.055" height="55.2289" transform="rotate(-180 115.376 213.97)" fill="#5820B5" stroke="black" stroke-width="2"/>
</g>
<path d="M95 215L117 163" stroke="black" stroke-width="2"/>
<path d="M76.0304 214.554L53.004 163" stroke="black" stroke-width="2"/>
<rect x="70.5" y="147" width="21.5" height="30" fill="#5820B5"/>
<path d="M138 238V204" stroke="black" stroke-width="2"/>
<path d="M32 238V204" stroke="black" stroke-width="2"/>
</svg>
